name rise37.2698peak67.6939fall79.5734.mot
datacolumns 19
datarows 17
range 6.93664400000000 6.96330400000000
endheader
time	ground_force1_vx	ground_force1_vy	ground_force1_vz	ground_force1_px	ground_force1_py	ground_force1_pz	ground_force2_vx	ground_force2_vy	ground_force2_vz	ground_force2_px	ground_force2_py	ground_force2_pz	ground_torque1_x	ground_torque1_y	ground_torque1_z	ground_torque2_x	ground_torque2_y	ground_torque2_z	
6.93664400000000	-6.62409500000000	46.81813700000000	-9.63002100000000	0.28718800000000	0.00000000000000	0.09453700000000	-55.70984200000000	785.76549199999999	-47.84519000000000	0.09398100000000	0.00000000000000	-0.07252700000000	0.00000000000000	-5.99850300000000	0.00000000000000	0.00000000000000	-15.08878100000000	0.00000000000000	
6.93831100000000	-6.95407300000000	53.87428900000000	-10.54253400000000	0.29237900000000	0.00000000000000	0.09557800000000	-56.46541100000000	782.59819200000004	-47.38189600000000	0.09310600000000	0.00000000000000	-0.07240500000000	0.00000000000000	-6.66826800000000	0.00000000000000	0.00000000000000	-15.05963100000000	0.00000000000000	
6.93997600000000	-7.11806100000000	60.95336800000000	-11.32124800000000	0.29719800000000	0.00000000000000	0.09652000000000	-57.23730900000000	779.30963899999995	-46.90331500000000	0.09223200000000	0.00000000000000	-0.07227900000000	0.00000000000000	-7.27316600000000	0.00000000000000	0.00000000000000	-15.03300100000000	0.00000000000000	
6.94164500000000	-7.10633900000000	67.98832000000000	-11.95130700000000	0.30170100000000	0.00000000000000	0.09737800000000	-58.02441500000000	775.89649699999995	-46.40948800000000	0.09136100000000	0.00000000000000	-0.07215100000000	0.00000000000000	-7.80226000000000	0.00000000000000	0.00000000000000	-15.00876600000000	0.00000000000000	
6.94330900000000	-6.91667200000000	74.93551400000000	-12.42594600000000	0.30593100000000	0.00000000000000	0.09816300000000	-58.82548800000000	772.35537399999998	-45.90045900000000	0.09049400000000	0.00000000000000	-0.07201900000000	0.00000000000000	-8.24943000000000	0.00000000000000	0.00000000000000	-14.98678200000000	0.00000000000000	
6.94497500000000	-6.55353200000000	81.77460000000001	-12.74587700000000	0.30992400000000	0.00000000000000	0.09888500000000	-59.63916900000000	768.68284200000005	-45.37627800000000	0.08963100000000	0.00000000000000	-0.07188400000000	0.00000000000000	-8.61314500000000	0.00000000000000	0.00000000000000	-14.96688300000000	0.00000000000000	
6.94664400000000	-6.02689700000000	88.50647900000000	-12.91815600000000	0.31370800000000	0.00000000000000	0.09955100000000	-60.46398500000000	764.87544500000001	-44.83700200000000	0.08877300000000	0.00000000000000	-0.07174600000000	0.00000000000000	-8.89590100000000	0.00000000000000	0.00000000000000	-14.94888700000000	0.00000000000000	
6.94830600000000	-5.35081900000000	95.14986500000001	-12.95473800000000	0.31730600000000	0.00000000000000	0.10017000000000	-61.29834600000000	760.92971599999998	-44.28269700000000	0.08792300000000	0.00000000000000	-0.07160400000000	0.00000000000000	-9.10341500000000	0.00000000000000	0.00000000000000	-14.93258800000000	0.00000000000000	
6.94997600000000	-4.54190100000000	101.73698400000001	-12.87087100000000	0.32073800000000	0.00000000000000	0.10074600000000	-62.14055200000000	756.84219800000005	-43.71343800000000	0.08708000000000	0.00000000000000	-0.07145900000000	0.00000000000000	-9.24370400000000	0.00000000000000	0.00000000000000	-14.91776500000000	0.00000000000000	
6.95164300000000	-3.61783100000000	108.30890900000000	-12.68350700000000	0.32401900000000	0.00000000000000	0.10128300000000	-62.98879300000000	752.60945100000004	-43.12931300000000	0.08624700000000	0.00000000000000	-0.07131000000000	0.00000000000000	-9.32611800000000	0.00000000000000	0.00000000000000	-14.90417800000000	0.00000000000000	
6.95331100000000	-2.59608800000000	114.91097200000000	-12.40984400000000	0.32716200000000	0.00000000000000	0.10178700000000	-63.84115400000000	748.22808099999997	-42.53042300000000	0.08542300000000	0.00000000000000	-0.07115700000000	0.00000000000000	-9.36044100000000	0.00000000000000	0.00000000000000	-14.89156800000000	0.00000000000000	
6.95497400000000	-1.49288000000000	121.58860799999999	-12.06610300000000	0.33017800000000	0.00000000000000	0.10226000000000	-64.69561700000000	743.69474800000000	-41.91688500000000	0.08461000000000	0.00000000000000	-0.07100100000000	0.00000000000000	-9.35610100000000	0.00000000000000	0.00000000000000	-14.87966200000000	0.00000000000000	
6.95663800000000	-0.32237400000000	128.38389000000001	-11.66658600000000	0.33307600000000	0.00000000000000	0.10270600000000	-65.55006600000000	739.00619099999994	-41.28883500000000	0.08380900000000	0.00000000000000	-0.07084200000000	0.00000000000000	-9.32154400000000	0.00000000000000	0.00000000000000	-14.86817100000000	0.00000000000000	
6.95830600000000	0.90379100000000	135.33288500000000	-11.22305200000000	0.33586300000000	0.00000000000000	0.10312600000000	-66.40229500000000	734.15924500000006	-40.64642500000000	0.08302000000000	0.00000000000000	-0.07067800000000	0.00000000000000	-9.26378900000000	0.00000000000000	0.00000000000000	-14.85678900000000	0.00000000000000	
6.95997400000000	2.17670500000000	142.46390900000000	-10.74438700000000	0.33854500000000	0.00000000000000	0.10352400000000	-67.25000700000000	729.15086299999996	-39.98983100000000	0.08224500000000	0.00000000000000	-0.07051100000000	0.00000000000000	-9.18817200000000	0.00000000000000	0.00000000000000	-14.84520000000000	0.00000000000000	
6.96163800000000	3.49014900000000	149.79662400000001	-10.23655100000000	0.34112800000000	0.00000000000000	0.10390100000000	-68.09082600000001	723.97813499999995	-39.31925000000000	0.08148400000000	0.00000000000000	-0.07034100000000	0.00000000000000	-9.09825800000000	0.00000000000000	0.00000000000000	-14.83307300000000	0.00000000000000	
6.96330400000000	4.84035700000000	157.34192700000000	-9.70275600000000	0.34361600000000	0.00000000000000	0.10425800000000	-68.92229900000000	718.63831000000005	-38.63490400000000	0.08073900000000	0.00000000000000	-0.07016600000000	0.00000000000000	-8.99590600000000	0.00000000000000	0.00000000000000	-14.82006900000000	0.00000000000000	
